<svg width="16" height="16" viewBox="0 0 1026 1026" xmlns="http://www.w3.org/2000/svg" class="icons">
    <g>
        <rect fill="none" id="canvas_background" height="1026" width="1026" y="-1" x="-1"/>
    </g>

    <g>
        <title>Layer 1</title>
        <path id="svg_5"
              d="m770.19702,155.0533c-70.33827,-58.96395 -146.20195,-106.19777 -208.43358,-112.63716c-3.38785,-0.41769 -6.8967,-0.66134 -10.60721,-0.73096l-409.56713,0c-6.53372,0 -12.98678,2.19288 -17.58457,6.26536c-4.55747,3.96805 -7.25969,9.53726 -7.25969,15.21089l0,896.29383c0,5.63882 2.54089,11.03399 7.25969,15.14128c4.71879,4.03767 10.92985,6.23054 17.58457,6.23054l740.64904,0c6.53372,0 12.78511,-2.15806 17.5039,-6.23054c4.71879,-4.07249 7.34034,-9.46765 7.34034,-15.14128l0,-596.42698c-1.45193,-69.23218 -64.28853,-144.7297 -136.88536,-207.97498zm88.90963,628.31065l-692.75397,154.54545l0,-853.41096l384.84389,0l0,0.06962c16.77793,-0.87019 31.25697,13.4357 42.34815,46.15478c10.0829,31.15273 12.62379,71.77312 12.58345,99.93241c0.08067,20.64086 -1.08895,34.49426 -1.08895,34.49426l-1.97625,22.69451l26.45752,0.24365c0.12099,0 61.14266,0.62653 120.99472,12.35667c57.51283,10.72072 102.48254,32.09254 106.67702,56.28377c0.16132,2.15807 0.20166,4.31614 0.16132,6.33497l0,574.84632l-0.04033,1.81818l1.79343,-156.36363z"
              stroke-width="null" fill="#007fff"/>
        <text stroke="null"
              transform="matrix(4.728638172149658,0,0,4.728638172149658,-2648.0110571282858,-3264.5945411171706) "
              xml:space="preserve" font-family="Helvetica, Arial, sans-serif" font-size="24" id="svg_6" y="886.88728"
              x="718.640909" stroke-width="0" fill="#ffffff">M</text>
        <text style="cursor: move;" fill="#007fff" stroke-width="0" x="388.566988" y="474.003996" id="svg_1"
              font-size="24" font-family="Helvetica, Arial, sans-serif" xml:space="preserve"
              transform="matrix(6.360489456341751,0,0,6.360489456341751,-2174.7735817418375,-2484.2945048171614) "
              stroke="#000" font-weight="bold">Lottie</text>
    </g>
</svg>