<svg width="16" height="16" viewBox="0 0 1024 1024" xmlns="http://www.w3.org/2000/svg" version="1.1"
     class="icon">
    <path id="svg_1" fill="#1890FF"
          d="m590.22222,73.95556l268.8,268.29937l0,533.83396c0,37.70027 -30.5664,68.26667 -68.26666,68.26667l-557.51112,0c-37.70026,0 -68.26666,-30.5664 -68.26666,-68.26667l0,-733.86667c0,-37.70027 30.5664,-68.26667 68.26666,-68.26666l356.97778,0zm-11.77031,28.43875l-345.20747,0a39.82791,39.82791 0 0 0 -39.79946,38.45689l-0.02276,1.37102l0,733.86667a39.82222,39.82222 0 0 0 38.45689,39.79947l1.36533,0.02275l557.51112,0a39.82222,39.82222 0 0 0 39.79946,-38.45689l0.02276,-1.36533l0,-522.0352l-252.12587,-251.65938z"/>
    <path id="svg_2" fill="#1890FF"
          d="m854.75556,370.64818l-215.1424,0c-45.52818,0 -82.55147,-36.43165 -83.5072,-81.73796l-0.01707,-1.792l0,-213.16266l28.44444,0l0,213.16266c0,29.89511 23.81938,54.23218 53.51538,55.06276l1.56445,0.02275l215.1424,0l0,28.44445z"/>
    <path id="svg_3" fill="#1890FF"
          d="m85.33333,489.24444l853.33334,0q28.44444,0 28.44444,28.44445l0,284.44444q0,28.44445 -28.44444,28.44445l-853.33334,0q-28.44444,0 -28.44444,-28.44445l0,-284.44444q0,-28.44444 28.44444,-28.44445z"/>
    <text style="cursor: move;" font-weight="bold"
          transform="matrix(9.83496956872848,0,0,9.83496956872848,-1348.0885246949629,-5465.993747011677) "
          xml:space="preserve" text-anchor="start" font-family="Oswald, sans-serif" font-size="24" id="svg_5"
          y="632.103858" x="157.155428" stroke-width="0" fill="#ffffff">Lottie</text>
</svg>